<?xml version="1.0" encoding="UTF-8" standalone="no"?>
<!DOCTYPE svg PUBLIC "-//W3C//DTD SVG 1.1//EN" "http://www.w3.org/Graphics/SVG/1.1/DTD/svg11.dtd">
<svg width="100%" height="100%" viewBox="0 0 1277 1542" version="1.1" xmlns="http://www.w3.org/2000/svg" xmlns:xlink="http://www.w3.org/1999/xlink" xml:space="preserve" xmlns:serif="http://www.serif.com/" style="fill-rule:evenodd;clip-rule:evenodd;stroke-linecap:round;stroke-linejoin:round;stroke-miterlimit:1.5;">
    <g transform="matrix(1,0,0,1,-575.5,-1166.74)">
        <g transform="matrix(1.92115,0,0,1.92115,-530.582,-2494.47)">
            <path d="M826.892,2333.24L789.198,2291.37L826.892,2249.4L1157.11,2249.4L1157.11,1906L1240.16,1906L1240.16,2708L1157.11,2708L1157.11,2333.24L826.892,2333.24ZM710.206,2356.37L708.491,2354.32L671.223,2395.82L671.223,2708L576,2708L576,1906L671.223,1906L671.223,2283.23L710.206,2238.06L710.206,1906L796.166,1906L796.166,2138.46L996.783,1906L1111.11,1906L765.388,2290.97L765.059,2291.41L1135,2708L1005.49,2708L796.166,2458.73L796.166,2708L710.206,2708L710.206,2356.37Z" style="fill:rgb(33,37,41);stroke:black;stroke-width:0.52px;"/>
        </g>
    </g>
</svg>
